<?xml version="1.0" standalone="no"?>
<!DOCTYPE svg PUBLIC "-//W3C//DTD SVG 20010904//EN"
 "http://www.w3.org/TR/2001/REC-SVG-20010904/DTD/svg10.dtd">
<svg version="1.0" xmlns="http://www.w3.org/2000/svg"
 width="250.000000pt" height="250.000000pt" viewBox="0 0 250.000000 250.000000"
 preserveAspectRatio="xMidYMid meet">

<g transform="translate(0.000000,250.000000) scale(0.100000,-0.100000)"
fill="#000000" stroke="none">
<path d="M1596 1805 c-9 -9 -33 -15 -61 -15 -60 0 -111 -22 -120 -52 -4 -12
-32 -48 -62 -79 l-55 -56 33 -7 c58 -11 120 -50 174 -108 82 -88 110 -195 81
-309 -40 -158 -167 -259 -328 -259 -100 0 -170 26 -239 88 -59 53 -104 136
-114 214 l-7 50 -87 -88 c-47 -49 -96 -96 -109 -104 -20 -13 -24 -26 -30 -110
-5 -72 -8 -87 -13 -60 -6 34 -6 34 -8 -10 -1 -62 44 -156 99 -203 82 -70 99
-72 520 -72 l375 0 57 28 c76 37 124 94 149 178 19 63 20 88 17 401 l-4 333
-32 68 c-45 97 -66 123 -125 157 -58 33 -88 37 -111 15z m108 -1006 c-16 -17
-38 -35 -49 -41 -11 -6 0 8 25 30 53 49 65 54 24 11z"/>
<path d="M1305 1159 c-71 -43 -133 -79 -137 -79 -5 0 -8 10 -9 23 l0 22 -9
-23 c-11 -27 -73 -56 -107 -49 -24 4 -23 3 8 -29 75 -78 221 -103 324 -56 59
27 119 82 146 134 23 46 23 48 1 48 -18 0 -61 40 -78 72 -8 15 -26 6 -139 -63z"/>
</g>
</svg>
